<?xml version="1.0" encoding="utf-8"?>
<!-- Generator: Adobe Illustrator 24.0.2, SVG Export Plug-In . SVG Version: 6.00 Build 0)  -->
<svg version="1.1" id="Capa_1" xmlns="http://www.w3.org/2000/svg" xmlns:xlink="http://www.w3.org/1999/xlink" x="0px" y="0px"
	 viewBox="0 0 33 33" style="enable-background:new 0 0 33 33;" xml:space="preserve">
<style type="text/css">
	.st0{fill:#1D1D1B;stroke:#1D1D1B;stroke-width:0.75;stroke-miterlimit:10;}
</style>
<path id="instagram" class="st0" d="M16.5,8.4c-4.5,0-8.1,3.6-8.1,8.1s3.6,8.1,8.1,8.1s8.1-3.6,8.1-8.1C24.5,12.1,21,8.4,16.5,8.4
	L16.5,8.4z M16.5,21.8c-2.9,0-5.3-2.4-5.3-5.3s2.4-5.3,5.3-5.3s5.3,2.4,5.3,5.3l0,0C21.8,19.5,19.5,21.8,16.5,21.8z M26.9,8.1
	c0,1-0.8,1.9-1.9,1.9s-1.9-0.8-1.9-1.9c0-1,0.8-1.9,1.9-1.9C26,6.3,26.9,7.1,26.9,8.1L26.9,8.1z M32.2,10.1c0.1-2.4-0.9-4.8-2.5-6.6
	C27.9,1.8,25.5,0.9,23,1c-2.6-0.2-10.4-0.2-13-0.1c-2.5,0-4.9,0.9-6.6,2.6s-2.6,4.1-2.6,6.6c-0.1,2.6-0.1,10.4,0,13
	c-0.1,2.4,0.9,4.8,2.5,6.6c1.8,1.7,4.2,2.6,6.6,2.5c2.6,0.1,10.4,0.1,13,0c2.4,0.1,4.8-0.9,6.6-2.5c1.7-1.8,2.6-4.2,2.5-6.6
	C32.3,20.5,32.3,12.6,32.2,10.1L32.2,10.1z M28.8,25.8c-0.5,1.4-1.6,2.5-3,3c-2.1,0.8-7,0.6-9.3,0.6s-7.2,0.3-9.2-0.6
	c-1.4-0.5-2.5-1.6-3-3c-0.8-2.1-0.6-7-0.6-9.3S3.5,9.3,4.3,7.3c0.5-1.4,1.6-2.5,3-3c2.1-0.8,7-0.6,9.3-0.6s7.2-0.2,9.2,0.6
	c1.4,0.5,2.5,1.6,3,3c0.8,2.1,0.6,7,0.6,9.3S29.6,23.8,28.8,25.8z"/>
</svg>
