<?xml version="1.0" encoding="utf-8"?>
<!-- Generator: Adobe Illustrator 24.0.2, SVG Export Plug-In . SVG Version: 6.00 Build 0)  -->
<svg version="1.1" id="Capa_1" xmlns="http://www.w3.org/2000/svg" xmlns:xlink="http://www.w3.org/1999/xlink" x="0px" y="0px"
	 viewBox="0 0 40 32" style="enable-background:new 0 0 40 32;" xml:space="preserve">
<style type="text/css">
	.st0{fill:#1D1D1B;}
</style>
<path id="twitter" class="st0" d="M35.2,8.2c0,0.3,0,0.7,0,1c0,10.3-7.9,22.3-22.3,22.3c-4.3,0-8.4-1.2-12-3.5
	c0.6,0.1,1.3,0.1,1.9,0.1c3.5,0,6.9-1.2,9.7-3.3c-3.3-0.1-6.3-2.2-7.3-5.4c0.5,0.1,1,0.1,1.5,0.1c0.7,0,1.4-0.1,2.1-0.3
	c-3.7-0.7-6.3-4-6.3-7.7v-0.1c1.1,0.6,2.3,0.9,3.5,1C2.6,10.1,1.5,5.5,3.6,1.9c4,4.9,9.8,7.9,16.1,8.2c-0.1-0.6-0.2-1.2-0.2-1.8
	c0-4.3,3.5-7.8,7.8-7.8c2.2,0,4.2,0.9,5.7,2.5c1.8-0.3,3.4-1,5-1.9c-0.6,1.8-1.8,3.3-3.4,4.3c1.6-0.2,3.1-0.6,4.5-1.2
	C38,5.7,36.7,7.1,35.2,8.2z"/>
</svg>
